<?xml version="1.0" encoding="UTF-8"?>
<svg xmlns="http://www.w3.org/2000/svg" viewBox="0 0 198.43 198.43">
  <path fill="#000" d="m99.21,148.4c3.46,0,6.28,2.82,6.28,6.28s-2.82,6.28-6.28,6.28-6.28-2.82-6.28-6.28,2.82-6.28,6.28-6.28m0-6c-6.78,0-12.28,5.5-12.28,12.28s5.5,12.28,12.28,12.28,12.28-5.5,12.28-12.28-5.5-12.28-12.28-12.28h0Z"/>
  <path fill="#000" d="m99.22,110.04c11.45,0,22.34,4.14,30.62,11.63.83.76.99,1.71,1.02,2.2.02.49-.04,1.42-.77,2.21-.04.05-.08.09-.13.14-.81.95-1.67,1.28-2.21,1.28-.62,0-1.45-.37-2.23-1.01-7.25-6.48-16.59-10.05-26.32-10.05s-19.16,3.6-26.42,10.14c-.75.67-1.57.81-2.12.81-.52,0-1.5-.13-2.32-1-1.13-1.29-1.03-3.28.22-4.42,8.4-7.66,19.29-11.9,30.65-11.94m-.01-6c-12.84.04-25.2,4.86-34.68,13.5-3.7,3.4-3.98,9.15-.62,12.89,1.81,1.97,4.28,2.97,6.76,2.97,2.18,0,4.38-.78,6.13-2.35,6.37-5.73,14.39-8.6,22.41-8.6s16.04,2.87,22.41,8.6c1.84,1.53,3.98,2.45,6.14,2.45,2.45,0,4.91-1.23,6.76-3.37,3.37-3.68,3.06-9.52-.62-12.89-9.51-8.6-21.79-13.2-34.68-13.2h0Z"/>
  <path fill="#000" d="m99.21,73.81c21,0,41.14,7.94,56.72,22.36.61.56.96,1.33.98,2.15.01.55-.13,1.36-.85,2.08-.91.91-1.92,1.32-2.51,1.32-.63,0-1.68-.34-2.51-.99-14.29-13.22-32.68-20.5-51.82-20.5s-37.97,7.33-51.97,20.64c-.63.57-1.48.89-2.32.89-.58,0-1.41-.15-2.07-.87-.78-.85-1.21-1.91-1.17-2.89.03-.74.31-1.35.82-1.82.02-.02.04-.04.06-.06,15.23-14.38,35.35-22.3,56.66-22.3m0-6c-22.71,0-44.2,8.29-60.78,23.94-3.68,3.38-3.68,9.21,0,13.2,1.72,1.88,4.09,2.8,6.48,2.8s4.61-.84,6.41-2.49c12.89-12.28,30.08-19.04,47.89-19.04s34.68,6.76,47.89,19.04c1.84,1.53,4.29,2.45,6.45,2.45,2.45,0,4.91-1.23,6.76-3.07,3.68-3.68,3.37-9.51-.31-12.89-16.58-15.35-38.07-23.94-60.78-23.94h0Z"/>
  <path fill="#000" d="m99.21,33.29c31.66,0,61.92,12.17,85.19,34.27.02.02.05.05.07.07.69.64.85,1.44.86,2.01.01.88-.32,1.75-.92,2.4-.05.06-.1.12-.16.18-.52.61-1.27.96-2.1.96-.03,0-.05,0-.08,0-.62,0-1.65-.33-2.47-.95-21.67-20.96-50.19-32.51-80.35-32.51h-.06c-30.12,0-58.74,11.49-80.58,32.36-.03.03-.07.06-.1.1-.65.65-1.49,1.01-2.36,1.01s-1.63-.32-2.26-.91c-1.12-1.32-1.12-3.27.02-4.32.04-.03.07-.07.11-.1,23.15-22.28,53.39-34.55,85.16-34.55m0-6c-33.46,0-65.08,12.89-89.32,36.22-3.68,3.37-3.68,9.21-.31,12.89,1.84,1.84,4.22,2.76,6.6,2.76s4.76-.92,6.6-2.76c20.56-19.65,47.89-30.7,76.43-30.7.02,0,.04,0,.06,0,28.52,0,55.92,11.12,76.37,31.01,1.84,1.53,4.29,2.45,6.45,2.45h0s.07,0,.11,0c2.55,0,4.98-1.12,6.64-3.07,3.38-3.68,3.38-9.51-.3-12.89-24.25-23.02-55.87-35.91-89.32-35.91h0Z"/>
  <path fill="#000" fill-rule="evenodd" d="m130.57,80.79c21.73,0,39.31,17.58,39.31,39.31s-17.58,39.27-39.31,39.27-39.31-17.58-39.31-39.31,17.62-39.27,39.31-39.27Zm0,9c-16.76,0-30.31,13.55-30.31,30.31s13.55,30.27,30.31,30.27,30.31-13.55,30.31-30.31-13.55-30.27-30.31-30.27Z"/>
  <path fill="#000" d="m150.67,129.53c1.64,1.64.58,5.31-2.39,8.28-2.92,2.92-6.64,3.98-8.28,2.39l-9.47-9.47-9.47,9.47c-1.64,1.64-5.31.58-8.28-2.39-2.92-2.92-3.98-6.64-2.39-8.28l9.47-9.47-9.47-9.47c-1.64-1.64-.58-5.31,2.39-8.28,2.92-2.92,6.64-3.98,8.28-2.39l9.47,9.47,9.47-9.47c1.64-1.64,5.31-.58,8.28,2.39,2.92,2.92,3.98,6.64,2.39,8.28l-9.47,9.47,9.47,9.47Z"/>
</svg>
